<svg width="40" height="40" viewBox="0 0 40 40" fill="none" xmlns="http://www.w3.org/2000/svg">
<path fill-rule="evenodd" clip-rule="evenodd" d="M18.1096 15.7727C18.1096 15.6329 18.22 15.5195 18.3562 15.5195H21.6438C21.78 15.5195 21.8904 15.6329 21.8904 15.7727V16.448C21.8904 16.5879 21.78 16.7013 21.6438 16.7013H18.3562C18.22 16.7013 18.1096 16.5879 18.1096 16.448V15.7727ZM16.6476 16.7013C16.6361 16.6186 16.6301 16.534 16.6301 16.448V15.7727C16.6301 14.7937 17.4029 14 18.3562 14H21.6438C22.5971 14 23.3699 14.7937 23.3699 15.7727V16.448C23.3699 16.534 23.3639 16.6186 23.3524 16.7013H23.9452H25.2603C25.6688 16.7013 26 17.0414 26 17.461C26 17.8806 25.6688 18.2208 25.2603 18.2208H24.6849V25.2273C24.6849 26.2063 23.9122 27 22.9589 27H17.1325C16.1874 27 15.418 26.2193 15.4066 25.2487L15.324 18.2208H14.7397C14.3312 18.2208 14 17.8806 14 17.461C14 17.0414 14.3312 16.7013 14.7397 16.7013H16.0548H16.6476ZM18.3562 18.2208H16.8035L16.886 25.2303C16.8876 25.369 16.9975 25.4805 17.1325 25.4805H22.9589C23.0951 25.4805 23.2055 25.3671 23.2055 25.2273V18.2208H21.6438H18.3562ZM19.4247 19.487C19.4247 19.0674 19.0935 18.7273 18.6849 18.7273C18.2764 18.7273 17.9452 19.0674 17.9452 19.487V23.539C17.9452 23.9585 18.2764 24.2987 18.6849 24.2987C19.0935 24.2987 19.4247 23.9585 19.4247 23.539V19.487ZM21.3151 18.7273C21.7236 18.7273 22.0548 19.0674 22.0548 19.487V23.539C22.0548 23.9585 21.7236 24.2987 21.3151 24.2987C20.9065 24.2987 20.5753 23.9585 20.5753 23.539V19.487C20.5753 19.0674 20.9065 18.7273 21.3151 18.7273Z" fill="#047857"/>
</svg>
