<svg width="40" height="40" viewBox="0 0 40 40" fill="none" xmlns="http://www.w3.org/2000/svg">
<path fill-rule="evenodd" clip-rule="evenodd" d="M25.8183 13.5364C25.1647 12.8769 24.1244 12.8184 23.4023 13.4005L15.8075 19.5219C15.6067 19.6838 15.4423 19.8869 15.3251 20.1177L14.8386 21.0756C14.0351 22.658 15.713 24.3511 17.2813 23.5403L18.3361 22.995C18.4442 22.9391 18.5464 22.8724 18.6413 22.796L26.1474 16.746C26.9929 16.0645 27.0632 14.7925 26.298 14.0204L25.8183 13.5364ZM24.3732 14.6268C24.4764 14.5436 24.625 14.552 24.7183 14.6462L25.198 15.1302C25.3074 15.2406 25.2973 15.4223 25.1765 15.5196L17.6704 21.5696C17.6568 21.5806 17.6422 21.5901 17.6268 21.5981L16.572 22.1434C16.348 22.2592 16.1082 22.0174 16.223 21.7913L16.7095 20.8334C16.7262 20.8004 16.7497 20.7714 16.7784 20.7483L24.3732 14.6268ZM13.7778 25.4304C13.3482 25.4304 13 25.7818 13 26.2152C13 26.6486 13.3482 27 13.7778 27H26.2222C26.6518 27 27 26.6486 27 26.2152C27 25.7818 26.6518 25.4304 26.2222 25.4304H13.7778Z" fill="#047857"/>
</svg>
